#N canvas 353 262 450 300 10;
#X obj 177 235 dac~;
#X obj 189 154 osc~ 55 0.1;
#X obj 180 135 osc~ 440 0.5;
#X obj 169 113 osc~ 880 1 0.5;
#X obj 157 93 osc~ 1760;
#X obj 139 70 osc~ 3520;
#X obj 181 199 clip~ -0.5 0.5;
#X connect 1 0 6 0;
#X connect 2 0 6 0;
#X connect 3 0 6 0;
#X connect 4 0 6 0;
#X connect 5 0 6 0;
#X connect 6 0 0 0;
#X connect 6 0 0 1;
